<?xml version="1.0" encoding="utf-8"?>
<!-- Generator: Adobe Illustrator 28.0.0, SVG Export Plug-In . SVG Version: 6.00 Build 0)  -->
<svg version="1.1" id="Layer_1" xmlns="http://www.w3.org/2000/svg" xmlns:xlink="http://www.w3.org/1999/xlink" x="0px" y="0px"
	 viewBox="0 0 580 752" style="enable-background:new 0 0 580 752;" xml:space="preserve">
<g>
	<path d="M525,475.2c-6.2-27.4-14-61.5-20.1-108.3c-11.6-88.9-31.8-176.4-98.4-220.1c12.2-28.5,2.1-54-15-67.7
		c-12.7-10.1-27.6-13.5-40.7-10c-6-16.9-20.2-28.4-39.1-30.6c-15-1.7-32.1,3.4-43.5,16C254.8,38.1,233.5,30,211,34
		c-12,2.2-22.2,10-28.7,22c-11.6,21.3-10.6,52.1,2.5,84.6c-75,41.2-96.8,132.9-109,226.2c-6.1,46.8-13.8,80.9-20.1,108.3
		c-10.8,47.6-17.3,76.2,2.2,109.1C80,621.5,164.8,718,290.4,718c125.5,0,210.4-96.5,232.5-133.7C542.3,551.5,535.8,522.8,525,475.2
		L525,475.2z M202.1,66.9c2.3-4.2,6.4-9.4,12.9-10.6c2.5-0.5,5-0.7,7.4-0.7c16,0,29.7,9.6,35.2,25.6l11.9,34.4l9.7-35.1
		c4.2-15.2,18.5-20.8,30-19.5c5,0.6,21.3,4.1,22.2,25.7l1,24.8l18.1-17c7.6-7.2,19.3-3.9,26.9,2.2c9.4,7.6,16,21.4,9.3,39
		c-26.9-9.3-57.3-4.7-85,13.3c-20.7,13.4-36.6,32.1-43.4,50c-15.1-12-39.2-34.7-51.9-65.2C195.3,107.4,193.7,82.3,202.1,66.9
		L202.1,66.9z M503.4,572.7c-18.9,31.8-98.6,122.7-213.1,122.7c-114.4,0-194.1-90.8-213-122.7c-14.9-25-10.1-46.2,0.4-92.5
		c6.3-27.8,14.2-62.5,20.4-110.4c11.3-87,31-172.2,96.5-208.8c24.5,41.8,63.4,65.9,65.3,67.1l18.1,11l-0.9-21.2
		c-0.5-12.5,13.1-34.6,36.8-49.9c13.3-8.6,38.8-20.7,66.4-10.5c0.6,0.5,1.2,0.9,1.9,1.2c68.6,35.4,88.7,122.4,100.3,211
		c6.2,47.9,14.1,82.6,20.4,110.4C513.5,526.5,518.3,547.7,503.4,572.7L503.4,572.7z"/>
	<path d="M355.2,425.4c-9.5-13.7-21.4-29.5-37.3-42.6c-6.1-5-15.5-11.5-26.8-11.6c-0.1,0-0.3,0-0.4,0s-0.2,0-0.3,0
		c-0.1,0-0.2,0-0.3,0c-0.1,0-0.2,0-0.4,0c-11.5,0.1-20.8,6.6-26.8,11.6c-15.9,13-27.8,28.8-37.3,42.5c-1.1,1.6-2.4,3.3-3.6,5.1
		c-9.1,12.6-20.5,28.4-18,46.6c3.1,22.6,59.2,107.6,77.9,118.1c2.9,1.6,5.5,2.2,7.8,2.2c0.3,0,0.5-0.1,0.7-0.1
		c0.3,0,0.5,0.1,0.7,0.1c2.2,0,4.9-0.6,7.8-2.2c18.7-10.5,74.8-95.5,77.9-118.1c2.5-18.2-8.9-33.9-18-46.6
		C357.6,428.7,356.3,427,355.2,425.4L355.2,425.4z M354.5,474c-2,14.5-48.1,85.3-64,99.4c-15.9-14.1-62.1-85-64-99.4
		c-1.3-9.2,6.8-20.4,13.9-30.2c1.3-1.9,2.7-3.7,3.9-5.4c8.7-12.5,19.3-26.7,33.1-38c5.4-4.4,9.7-6.6,13-6.5c0,0,0.1,0,0.2,0
		s0.1,0,0.2,0c3.3,0,7.6,2.1,13,6.5c13.7,11.3,24.4,25.5,33.1,38c1.2,1.7,2.5,3.6,3.9,5.4C347.6,453.6,355.7,464.7,354.5,474
		L354.5,474z"/>
	<path d="M192.4,392.2c-10.4,0-18.9-8.4-18.9-18.9c0-10.4,8.4-18.9,18.8-18.9h0.1c10.4,0,18.9,8.4,18.9,18.9
		C211.3,383.8,202.8,392.2,192.4,392.2L192.4,392.2z"/>
	<path d="M388.4,392.3c-10.4,0-18.9-8.4-18.9-18.8l0,0c0-10.4,8.4-18.9,18.9-18.9c10.4,0,18.9,8.4,18.9,18.9
		C407.2,383.8,398.8,392.3,388.4,392.3L388.4,392.3z"/>
</g>
<g>
	<path d="M528.2,287.8c0,0-12.7-1.3-39.4-5.1c0,0-22.3-1.9-52.8-3c0,0-19.7,0.4-41.3,0c0,0-17.8,1.7-41.3,4.9
		c0,0-17.8,5.1-36.3,10.8c0,0-11.4,4.5-20.3,5.7c0,0-5.7,0.6-13.4,0c0,0-5.1,0-13.4-3.2c0,0-17.2-5.1-43.9-12.1c0,0-35.3-8-97.1-5.7
		c-21.7,0.8-49.3,6.9-75.4,9.5V319c0,0,4.2,3.2,11.2,8.8c0,0,4,13.5,7.2,31.9c0,0,7.1,29.3,16.6,48.3c0,0,9,12.7,31.8,21.6
		c0,0,26.7,5.1,52.2,4.3c0,0,18.5-3.6,36.9-8.7c0,0,12.7-5.7,26.1-17.8c0,0,13.4-14,24.8-38.2c0,0,3.6-8.4,7.6-20
		c0,0,2.7-8.3,5.6-16c0,0,2.9-4.1,6.9-7.2c0,0,5.3-1.3,11.3-1.3c0,0,5.5,1.3,10.6,3.1c0,0,4.4,8.4,12.7,26.2c0,0,7,19.7,15.9,36.3
		c0,0,7.6,12.1,22.9,25.4c0,0,17.2,10.2,40.1,14.6c0,0,26.1,5.1,46.4,3.2c0,0,9.5-0.6,18.4-3.2c0,0,8.3-1.9,16.5-5.1
		c0,0,8.9-5.1,13.4-11.4c0,0,8.3-11.4,14.6-30.5c0,0,6.4-24.2,9.5-45.1c0,0,2.5-5.1,5.1-10.3c0,0,5.1-5.6,10.2-12.6
		C528.2,315.2,530.8,299.9,528.2,287.8L528.2,287.8z M251.8,341.2c-4.3,18.1-9.8,33.6-9.8,33.6c-5.5,11.5-12.4,21.2-12.4,21.2
		c-6.9,8.8-15.3,15.3-15.3,15.3c-14.6,7.6-31,11.4-31,11.4c-15.5,2.2-27.7,2.2-27.7,2.2c-17.7-0.2-31.5-3.1-31.5-3.1
		c-12.6-4.8-18.6-11-18.6-11c-9-14.1-12.2-24.6-12.2-24.6c-4.1-13.1-6.2-23.1-6.2-23.1c-1.2-10-1.4-17.2-1.4-17.2
		c-0.5-8.3,0-16.2,0-16.2c1.2-6.9,3.1-13.6,3.1-13.6c3.3-6,7.6-10.3,7.6-10.3c7.4-4.3,16.2-7.2,16.2-7.2c11.5-2.4,20-3.7,20-3.7
		c13.6-1,23.6-1,23.6-1h9.8c23.8,0,39.6,2.2,39.6,2.2c20.5,4.1,29.3,7.1,29.3,7.1c9,5.2,13.1,9.9,13.1,9.9
		c1.9,5.2,3.6,11.6,3.6,11.6C252,334.4,251.8,341.2,251.8,341.2L251.8,341.2z M495.9,346c0,0-0.2,7.2-1.4,17.2c0,0-2.1,10-6.2,23.1
		c0,0-3.2,10.5-12.2,24.6c0,0-6,6.2-18.6,11c0,0-13.8,2.9-31.5,3.1c0,0-12.2,0-27.7-2.2c0,0-16.5-3.8-31-11.4c0,0-8.4-6.4-15.3-15.3
		c0,0-6.9-9.8-12.4-21.2c0,0-5.5-15.5-9.8-33.6c0,0-0.2-6.9,0-16.5c0,0,1.7-6.4,3.6-11.7c0,0,4.1-4.8,13.1-10c0,0,8.8-2.7,29.3-6.8
		c0,0,15.7-2.2,39.6-2.2h9.8c0,0,10,0.1,23.6,1c0,0,8.6,1.6,20,4c0,0,8.8,2.7,16.2,7c0,0,4.3,4.2,7.6,10.2c0,0,1.9,6.6,3.1,13.5
		C495.9,329.8,496.4,337.7,495.9,346L495.9,346z"/>
</g>
</svg>
